PathFileType	4	(X/Y/Z)	E:\Qualisys_Data\Carbon_Farble_Plate\Data\Amateur_Runner\S1\T1\S1T1V21_c3d.trc
DataRate	CameraRate	NumFrames	NumMarkers	Units	OrigDataRate	OrigDataStartFrame	OrigNumFrames
200.000000	200.000000	4	39	mm	200.000000	0	283
Frame#	Time	LSHO			RSHO			LICST			RICST			LASIS			LHEEL			RASIS			LTROC			RTROC			SACR			LTH1			LSK4			LTH2			LTH3			RHM5			LSK2			LTH4			RTH1			LTOE			RTH2			RTH3			RTH4			LLEP			RLEP			LSK1			LSK3			RSK1			LHM5			RSK2			LFT1			RSK3			RSK4			LLME			RLME			RTOE			RHEEL			RFT1			RFT2			LFT2			
		X1	Y1	Z1	X2	Y2	Z2	X3	Y3	Z3	X4	Y4	Z4	X5	Y5	Z5	X6	Y6	Z6	X7	Y7	Z7	X8	Y8	Z8	X9	Y9	Z9	X10	Y10	Z10	X11	Y11	Z11	X12	Y12	Z12	X13	Y13	Z13	X14	Y14	Z14	X15	Y15	Z15	X16	Y16	Z16	X17	Y17	Z17	X18	Y18	Z18	X19	Y19	Z19	X20	Y20	Z20	X21	Y21	Z21	X22	Y22	Z22	X23	Y23	Z23	X24	Y24	Z24	X25	Y25	Z25	X26	Y26	Z26	X27	Y27	Z27	X28	Y28	Z28	X29	Y29	Z29	X30	Y30	Z30	X31	Y31	Z31	X32	Y32	Z32	X33	Y33	Z33	X34	Y34	Z34	X35	Y35	Z35	X36	Y36	Z36	X37	Y37	Z37	X38	Y38	Z38	X39	Y39	Z39	

1	0	-2823.372314453125	1544.579833984375	-579.5083618164062	-2903.50048828125	1536.469970703125	-269.1215209960938	-2858.137451171875	1068.292114257812	-559.617919921875	-2871.117431640625	1086.920043945312	-264.685302734375	-2816.84814453125	1026.9189453125	-534.224365234375	-3401.721923828125	343.5156860351562	-484.107177734375	-2831.344970703125	1041.272338867188	-272.4964904785156	-2941.86572265625	959.3058471679688	-580.1441650390625	-2927.119873046875	946.6972045898438	-241.1441192626953	-2982.854248046875	1095.426513671875	-412.5208740234375	-2863.30224609375	782.2396240234375	-552.869384765625	-3284.425048828125	419.5108642578125	-507.3586120605469	-2939.473876953125	799.625244140625	-582.3399658203125	-2893.81591796875	682.9443969726562	-538.4947509765625	-2486.571533203125	161.8103332519531	-256.0107421875	-3204.156005859375	473.5301208496094	-544.261962890625	-2972.440673828125	706.15087890625	-560.041748046875	-2751.6767578125	877.0049438476562	-263.885009765625	-3313.1162109375	103.0558013916016	-447.48291015625	-2818.231689453125	836.178955078125	-240.1252899169922	-2701.770263671875	787.8661499023438	-268.0858154296875	-2772.018310546875	749.03515625	-257.0505065917969	-3001.14794921875	551.4270629882812	-528.9579467773438	-2680.386474609375	607.1572265625	-284.9185791015625	-3157.38720703125	403.8836364746094	-532.583740234375	-3244.672119140625	352.04541015625	-528.38037109375	-2649.648193359375	416.171630859375	-261.8688049316406	-3352.00537109375	147.9946899414062	-514.1470947265625	-2728.810791015625	400.7279357910156	-282.072021484375	-3415.6064453125	330.0547790527344	-449.5699462890625	-2629.509033203125	318.7961120605469	-276.7719421386719	-2703.697265625	306.6313171386719	-306.3661804199219	-3356.448974609375	302.4917297363281	-523.4212036132812	-2626.65869140625	178.7617492675781	-283.748291015625	-2429.12646484375	213.8472442626953	-327.3899230957031	-2671.4228515625	116.3417282104492	-330.4995422363281	-2644.76318359375	98.22592163085938	-364.4778137207031	-2653.075439453125	94.50252532958984	-306.0257263183594	-3423.0927734375	323.3166198730469	-505.2242431640625
2	0.005	-2802.037109375	1544.763916015625	-578.0611572265625	-2882.07763671875	1535.747192382812	-267.5984497070312	-2836.927734375	1069.261962890625	-560.3926391601562	-2850.2470703125	1085.92041015625	-264.7282409667969	-2794.9404296875	1027.023071289062	-534.7047729492188	-3383.655029296875	352.456298828125	-483.8586730957031	-2809.902099609375	1040.360961914062	-272.6217346191406	-2919.77685546875	959.2521362304688	-580.8858642578125	-2905.98046875	945.26025390625	-242.4859161376953	-2961.161376953125	1095.05224609375	-412.5002136230469	-2839.536865234375	782.1097412109375	-552.3511352539062	-3263.82763671875	426.1958923339844	-507.5762939453125	-2915.608642578125	798.9086303710938	-582.0211791992188	-2869.53271484375	683.064453125	-538.1128540039062	-2454.24462890625	163.6964263916016	-256.65966796875	-3182.115234375	477.8616638183594	-545.2508544921875	-2948.262451171875	705.127685546875	-560.0786743164062	-2732.763427734375	872.5198974609375	-263.9263916015625	-3295.2998046875	112.4678955078125	-444.8435668945312	-2798.64208984375	833.1974487304688	-239.0209503173828	-2682.8525390625	782.3362426757812	-268.593505859375	-2755.121337890625	744.9012451171875	-256.0438232421875	-2976.775634765625	550.8745727539062	-529.2010498046875	-2664.21044921875	602.7556762695312	-286.28662109375	-3136.867431640625	407.0833435058594	-532.9358520507812	-3226.030517578125	358.9219360351562	-529.1395263671875	-2627.87158203125	413.9629516601562	-261.9383850097656	-3335.69873046875	155.8741149902344	-512.7290649414062	-2706.09423828125	396.6000366210938	-282.4120483398438	-3399.403564453125	338.3094787597656	-450.3041687011719	-2603.253662109375	317.4535827636719	-275.9948425292969	-2677.839599609375	302.679443359375	-305.52880859375	-3339.996826171875	311.0411987304688	-523.0016479492188	-2596.151611328125	177.5419311523438	-282.7158508300781	-2400.342529296875	218.4414215087891	-328.4385070800781	-2640.41845703125	113.6923980712891	-329.264892578125	-2613.451416015625	99.14097595214844	-364.6070251464844	-2621.12109375	92.54573059082033	-305.0962524414062	-3406.71923828125	332.1495056152344	-506.1053466796875
3	0.01	-2780.560302734375	1545.279052734375	-576.3987426757812	-2860.507568359375	1535.037963867188	-266.5963745117188	-2814.682373046875	1068.774536132812	-560.0414428710938	-2828.185791015625	1085.051879882812	-264.5514526367188	-2773.274658203125	1027.88916015625	-534.6797485351562	-3364.91943359375	361.2024230957031	-484.3156127929688	-2788.7412109375	1039.88427734375	-272.6805419921875	-2896.55029296875	958.6116943359376	-580.820068359375	-2884.061279296875	943.9981689453124	-242.5796661376953	-2939.722412109375	1094.058227539062	-412.671875	-2815.291748046875	781.79736328125	-551.5047607421875	-3243.570556640625	433.6666259765625	-508.845458984375	-2891.72802734375	797.8389282226562	-582.3820190429688	-2844.591552734375	682.2969970703125	-537.4085083007812	-2424.23681640625	165.0357971191406	-256.85009765625	-3159.210693359375	481.8558654785156	-545.0003051757812	-2924.12255859375	704.43701171875	-560.7706909179688	-2712.243408203125	867.1541748046875	-264.3057861328125	-3277.837646484375	120.0876388549805	-444.6751098632812	-2779.2265625	829.917724609375	-237.5201568603516	-2665.729248046875	776.3076171875	-268.9252319335938	-2736.7705078125	740.4014282226562	-254.8581390380859	-2951.412353515625	548.514404296875	-529.1953735351562	-2647.02978515625	598.8768310546875	-286.8625183105469	-3116.81494140625	411.0256652832031	-533.1404418945312	-3206.622802734375	363.8794555664062	-527.7881469726562	-2605.814697265625	412.5379028320312	-262.1998901367188	-3317.738037109375	163.5823211669922	-512.0084228515625	-2683.609130859375	393.2096862792969	-282.5177612304688	-3383.4345703125	346.4072875976562	-451.6802673339844	-2578.4033203125	316.9212341308594	-276.2057189941406	-2652.351318359375	299.5732727050781	-305.0669555664062	-3321.260498046875	318.4801635742188	-522.1389770507812	-2567.923828125	176.3827514648438	-281.9486694335938	-2372.7822265625	223.1238250732422	-329.1019592285156	-2608.635498046875	111.3407516479492	-328.1488037109375	-2584.16845703125	99.18067169189452	-364.8127136230469	-2590.03173828125	90.1017837524414	-304.9539184570312	-3387.150146484375	339.9052124023438	-505.4509582519531
4	0.015	-2760.15869140625	1544.889404296875	-575.7271118164062	-2839.443115234375	1533.618774414062	-265.0599060058594	-2793.193115234375	1069.210205078125	-560.2058715820312	-2806.905029296875	1083.863037109375	-264.808837890625	-2751.190673828125	1027.249145507812	-534.7290649414062	-3345.34228515625	369.4316711425781	-484.0780029296875	-2766.448974609375	1038.776977539062	-273.0592041015625	-2874.536376953125	958.2329711914062	-581.9344482421875	-2863.239013671875	942.4667358398438	-243.704833984375	-2918.333984375	1093.013671875	-412.7484130859375	-2791.345947265625	781.3148803710938	-550.7012939453125	-3221.59814453125	439.6609802246094	-508.9703979492188	-2866.9951171875	796.9609375	-581.8560180664062	-2819.311279296875	681.6307373046875	-536.5852661132812	-2395.878173828125	167.2774505615234	-257.57763671875	-3135.643310546875	485.4334411621094	-544.9632568359375	-2898.5361328125	702.3309326171875	-560.4508666992188	-2692.952392578125	861.7730712890625	-264.8624572753906	-3261.590576171875	128.0615997314453	-443.8220520019531	-2760.71630859375	826.1304321289062	-236.7730255126953	-2647.217041015625	770.656494140625	-269.9381713867188	-2719.769775390625	735.5861206054688	-253.3045349121094	-2926.21533203125	547.1063232421875	-529.7322998046875	-2629.371337890625	594.26708984375	-287.6543273925781	-3095.256591796875	413.4352416992188	-532.6622314453125	-3186.39111328125	369.8419799804688	-527.851318359375	-2583.97998046875	410.8655395507812	-262.7391967773438	-3299.381591796875	171.6925201416016	-511.2311706542969	-2662.558837890625	390.0911865234375	-282.9831237792969	-3364.414306640625	355.4576416015625	-450.8926086425781	-2554.368408203125	315.8777160644531	-276.0430603027344	-2628.147705078125	296.5520935058594	-304.5299072265625	-3301.353271484375	326.2068786621094	-521.7509155273438	-2540.013916015625	175.6715087890625	-281.5094909667969	-2347.05419921875	226.1872406005859	-330.2768859863281	-2579.7861328125	109.4800491333008	-326.8773498535156	-2558.244873046875	101.0849990844727	-367.5422668457031	-2561.149658203125	88.50142669677734	-303.8850402832031	-3368.173828125	349.4811096191406	-505.0245361328125
